<?xml version="1.0" standalone="no"?>
<!DOCTYPE svg PUBLIC "-//W3C//DTD SVG 20010904//EN"
 "http://www.w3.org/TR/2001/REC-SVG-20010904/DTD/svg10.dtd">
<svg version="1.0" xmlns="http://www.w3.org/2000/svg"
 width="500.000000pt" height="500.000000pt" viewBox="0 0 500.000000 500.000000"
 preserveAspectRatio="xMidYMid meet">
<metadata>
Created by potrace 1.14, written by Peter Selinger 2001-2017
</metadata>
<g transform="translate(0.000000,500.000000) scale(0.100000,-0.100000)"
fill="#000000" stroke="none">
<path d="M120 3437 c0 -1 33 -128 74 -282 41 -154 142 -535 225 -848 83 -312
151 -570 151 -572 0 -3 80 -4 177 -3 l176 3 33 120 c17 66 64 237 104 380 39
143 94 344 122 448 28 103 54 187 57 187 4 0 77 -255 162 -567 l156 -568 177
-3 c97 -1 176 0 176 3 0 6 436 1653 446 1688 5 16 -8 17 -180 17 -184 0 -186
0 -191 -22 -7 -29 -104 -472 -190 -863 -36 -165 -69 -309 -74 -320 -7 -17 -10
-14 -19 20 -33 124 -302 1176 -302 1180 0 3 -72 5 -160 5 l-159 0 -10 -37
c-125 -498 -294 -1153 -300 -1168 -12 -27 -9 -38 -85 310 -91 420 -185 846
-191 873 -5 22 -7 22 -190 22 -102 0 -185 -1 -185 -3z"/>
<path d="M2775 3014 c-219 -39 -363 -172 -399 -366 l-7 -38 159 0 158 0 12 34
c7 19 28 48 47 65 93 81 290 66 352 -27 23 -35 42 -157 27 -171 -5 -5 -92 -14
-194 -20 -102 -7 -219 -19 -260 -27 -150 -31 -264 -106 -318 -209 -25 -45 -27
-60 -27 -160 0 -101 2 -115 28 -165 66 -129 181 -200 347 -216 78 -7 164 7
236 40 57 26 159 115 169 147 15 45 25 12 25 -76 l0 -95 170 0 171 0 -3 488
-3 487 -29 62 c-37 81 -123 164 -210 203 -122 56 -293 72 -451 44z m352 -798
c-8 -91 -17 -115 -62 -164 -99 -110 -311 -117 -382 -12 -29 41 -30 103 -3 147
38 63 115 83 355 96 33 2 69 4 79 5 18 2 18 -3 13 -72z"/>
<path d="M3620 2994 c0 -4 86 -146 192 -317 l192 -310 -24 -41 c-13 -23 -97
-157 -187 -300 -90 -142 -168 -267 -174 -278 -10 -18 -4 -18 172 -16 l182 3
116 214 c64 117 120 214 125 215 4 0 37 -53 73 -119 36 -66 90 -164 120 -217
l54 -98 185 0 c101 0 184 2 184 5 0 3 -86 145 -192 317 -105 172 -191 317
-191 323 0 5 86 146 192 312 105 166 191 304 191 308 0 3 -84 4 -186 3 l-185
-3 -112 -212 c-61 -116 -114 -209 -117 -207 -3 3 -55 98 -115 212 l-110 207
-193 3 c-105 1 -192 -1 -192 -4z"/>
</g>
</svg>
